<svg version="1.1" xmlns="http://www.w3.org/2000/svg" xmlns:xlink="http://www.w3.org/1999/xlink" width="36.17157" height="35.08206" viewBox="0,0,36.17157,35.08206"><defs><linearGradient x1="221.91423" y1="180" x2="258.08579" y2="180" gradientUnits="userSpaceOnUse" id="color-1"><stop offset="0" stop-color="#a7a9ac"/><stop offset="1" stop-color="#414042"/></linearGradient></defs><g transform="translate(-221.91422,-162.45897)"><g data-paper-data="{&quot;isPaintingLayer&quot;:true}" fill-rule="nonzero" stroke="#000000" stroke-linecap="butt" stroke-linejoin="miter" stroke-miterlimit="10" stroke-dasharray="" stroke-dashoffset="0" style="mix-blend-mode: normal"><path d="M221.91423,197.54103v-35.08206h36.17157v35.08206z" fill="url(#color-1)" stroke-width="0"/><path d="M230.94089,170.92695c2.32486,-2.29136 5.52561,-3.70683 9.05911,-3.70683c0.22234,0 0.44335,0.00561 0.66293,0.01668" fill="none" stroke-width="3.5"/><path d="M245.13339,168.27832c2.96287,1.28254 5.34512,3.64144 6.64637,6.57955" fill="none" stroke-width="3.5"/><path d="M252.86044,179.72183c0.00199,0.09249 0.00298,0.18522 0.00298,0.27818c0,3.31274 -1.26868,6.33109 -3.34967,8.60163" fill="none" stroke-width="3.5"/><path d="M245.48518,191.56309c-1.66382,0.78042 -3.52321,1.21681 -5.48518,1.21681c-0.62875,0 -1.24696,-0.04482 -1.85158,-0.13141" fill="none" stroke-width="3.5"/><path d="M233.56857,191.07034c-1.85728,-1.06734 -3.42103,-2.58279 -4.54147,-4.39754" fill="none" stroke-width="3.5"/><path d="M227.31193,182.11512c-0.11534,-0.688 -0.17535,-1.3946 -0.17535,-2.11512c0,-1.78762 0.36943,-3.48951 1.03656,-5.03444" fill="none" stroke-width="3.5"/></g></g></svg>